<?xml version="1.0" encoding="utf-8"?>
<!-- Generator: Adobe Illustrator 21.0.2, SVG Export Plug-In . SVG Version: 6.00 Build 0)  -->
<svg version="1.1" id="Слой_1" xmlns="http://www.w3.org/2000/svg" xmlns:xlink="http://www.w3.org/1999/xlink" x="0px" y="0px"
	 viewBox="0 0 500 500" style="enable-background:new 0 0 500 500;" xml:space="preserve">
<style type="text/css">
	.st0{fill:#B99C6A;}
</style>
<polyline class="st0" points="500,250 500,213.3 404.4,213.3 297.8,213.3 202.2,213.3 95.6,213.3 0,213.3 0,250 "/>
<polyline class="st0" points="500,250 500,213.3 404.4,213.3 297.8,213.3 202.2,213.3 95.6,213.3 0,213.3 0,250 "/>
<polyline class="st0" points="500,250 500,213.3 404.4,213.3 297.8,213.3 202.2,213.3 95.6,213.3 0,213.3 0,250 "/>
<polyline class="st0" points="500,250 500,213.3 404.4,213.3 297.8,213.3 202.2,213.3 95.6,213.3 0,213.3 0,250 "/>
<polyline class="st0" points="500,250 500,213.3 404.4,213.3 297.8,213.3 202.2,213.3 95.6,213.3 0,213.3 0,250 "/>
</svg>
