<svg xmlns="http://www.w3.org/2000/svg" width="45mm" height="82.682" viewBox="0 0 2196 1067" shape-rendering="geometricPrecision" text-rendering="geometricPrecision" image-rendering="optimizeQuality" fill-rule="evenodd" clip-rule="evenodd"><defs><style>.fil0,.fil1{fill:#000}</style></defs><g id="Слой_x0020_1"><path class="fil1" d="M373 353l104 104c71 71 142 143 213 213l8 8-28 29-8-8c-86-85-171-171-257-257-30-30-59-60-89-89 39-38 76-76 115-114L662 8l8-8 28 29-8 8c-83 83-167 166-250 250l-67 66zm1812 345h-679V8h41v649h608V8h41v690zM11 8h30v690H0V8zm742 690V8h41v649h649v41H753z" id="_1120616496"/></g></svg>